# xmcd
#
# Track frame offsets:
#	150
#	19464
#	52810
#	80120
#	96939
#	115172
#	139706
#	166655
#	193184
#	226396
#	245692
#
# Disc length: 3410 seconds
#
# Revision: 4
# Processed by: cddbd v1.5.2PL0 Copyright (c) Steve Scherf et al.
# Submitted via: audiograbber 1.83.01
#
DISCID=910d500b
DTITLE=Anat Fort - A Long Story
DYEAR=2007
DGENRE=Jazz
TTITLE0=Just Now, Var. 1
TTITLE1=Morning: Good
TTITLE2=Lullaby
TTITLE3=Chapter Two
TTITLE4=Just Now, Var. 2
TTITLE5=Not a Dream?
TTITLE6=Rehaired
TTITLE7=As Two_Something 'Bout Camels
TTITLE8=Not The Perfect Storm
TTITLE9=Chapter One
TTITLE10=Just Now, Var. 3
EXTD=YEAR: 2007
EXTT0=
EXTT1=
EXTT2=
EXTT3=
EXTT4=
EXTT5=
EXTT6=
EXTT7=
EXTT8=
EXTT9=
EXTT10=
PLAYORDER=
